<?xml version="1.0" encoding="UTF-8" standalone="no"?>
<svg width="512" height="512" viewBox="0 0 512 512" xmlns="http://www.w3.org/2000/svg">
  <rect width="512" height="512" fill="#0B6E99"/>
  <g fill="#FFFFFF">
    <path d="M256 120c-75.2 0-136 60.8-136 136s60.8 136 136 136 136-60.8 136-136-60.8-136-136-136zm0 32c57.4 0 104 46.6 104 104s-46.6 104-104 104-104-46.6-104-104 46.6-104 104-104z"/>
    <path d="M256 200a56 56 0 100 112 56 56 0 000-112zm0 32a24 24 0 110 48 24 24 0 010-48z"/>
  </g>
</svg>
